HIERARCHY
ROOT Hips
{
	OFFSET 0.000000 0.000000 0.000000 
	CHANNELS 6 Xposition Yposition Zposition Yrotation Zrotation Xrotation 
	JOINT Lumbar
	{
		OFFSET 0.000000 0.000000 0.000000 
		CHANNELS 3 Zrotation Xrotation Yrotation
		JOINT Neck
		{
			OFFSET 0.000000 0.445665 0.000000 
			CHANNELS 3 Zrotation Xrotation Yrotation
			End Site
			{
				OFFSET 0.000000 0.227535 0.000000 
			}
		}
		JOINT RightShoulder
		{
			OFFSET 0.019635 0.377685 0.194865 
			CHANNELS 3 Zrotation Xrotation Yrotation
			JOINT RightElbow
			{
				OFFSET 0.000000 -0.243375 0.000000 
				CHANNELS 2 Zrotation Yrotation
				JOINT RightWrist
				{
					OFFSET 0.000000 -0.264825 0.000000 
					CHANNELS 2 Zrotation Xrotation
					End Site
					{
						OFFSET 0.006600 -0.176220 0.000990 
					}
				}
			}
		}
		JOINT LeftShoulder
		{
			OFFSET 0.019635 0.377685 -0.194865 
			CHANNELS 3 Zrotation Xrotation Yrotation
			JOINT LeftElbow
			{
				OFFSET 0.000000 -0.243375 0.000000 
				CHANNELS 2 Zrotation Yrotation
				JOINT LeftWrist
				{
					OFFSET 0.000000 -0.264825 0.000000 
					CHANNELS 2 Zrotation Xrotation
					End Site
					{
						OFFSET 0.006600 -0.176220 -0.000990 
					}
				}
			}
		}
	}
	JOINT RightHip
	{
		OFFSET 0.052140 -0.069960 0.075570 
		CHANNELS 3 Zrotation Xrotation Yrotation
		JOINT RightKnee
		{
			OFFSET 0.000000 -0.402270 0.000000 
			CHANNELS 1 Zrotation
			JOINT RightAnkle
			{
				OFFSET 0.000000 -0.404085 0.000000 
				CHANNELS 3 Zrotation Xrotation Yrotation
				End Site
				{
					OFFSET 0.204105 -0.089430 0.008415 
				}
			}
		}
	}
	JOINT LeftHip
	{
		OFFSET 0.052140 -0.069960 -0.075570 
		CHANNELS 3 Zrotation Xrotation Yrotation
		JOINT LeftKnee
		{
			OFFSET 0.000000 -0.402270 0.000000 
			CHANNELS 1 Zrotation
			JOINT LeftAnkle
			{
				OFFSET 0.000000 -0.404085 0.000000 
				CHANNELS 3 Zrotation Xrotation Yrotation
				End Site
				{
					OFFSET 0.204105 -0.089430 -0.008415 
				}
			}
		}
	}
}
MOTION
Frames: 31
Frame Time: 0.02
-0.00035 -0.00014 -0.00011 -175.17495 -42.32771 -1.31381 47.88994 1.69428 -8.2573 5.98832 1.89905 -0.1313 -21.94613 -9.8347 3.99689 35.21317 90.8223 5.0646 0.93129 -31.73675 13.49734 -12.80485 44.66037 -105.17683 13.53262 -1.6452 46.97195 -0.43706 -7.21489 -19.25164 -6.35294 -3.57817 -2.44695 50.78308 2.00962 0.62179 -25.08088 -6.80795 4.02357 2.77092
0.00014 -0.00011 -0.00015 -175.07273 -42.40299 -1.3088 47.82341 1.72526 -8.05809 6.24227 1.94661 -0.13225 -21.62579 -9.9922 4.22629 35.16086 90.98425 5.11571 0.92043 -30.97414 13.89019 -13.10229 45.10133 -105.02702 13.44145 -1.63368 47.08553 -0.41434 -7.09197 -19.25838 -6.36068 -3.59296 -2.46186 50.90989 2.05772 0.81543 -25.09228 -6.80093 3.997 2.75281
0.00063 -8e-05 -0.00019 -174.97086 -42.47812 -1.30383 47.75697 1.75617 -7.85946 6.4958 1.99405 -0.1332 -21.30562 -10.14876 4.45376 35.10855 91.15195 5.16829 0.91065 -30.21232 14.2818 -13.39906 45.54084 -104.87777 13.35062 -1.62221 47.1989 -0.39164 -6.96943 -19.26511 -6.36841 -3.60772 -2.47674 51.03645 2.10582 1.00871 -25.1037 -6.79392 3.97045 2.73473
0.00111 -5e-05 -0.00023 -174.86895 -42.55318 -1.29884 47.69064 1.78705 -7.66085 6.74903 2.04147 -0.13415 -20.98614 -10.30568 4.68218 35.05638 91.31486 5.21962 0.90006 -29.45182 14.67344 -13.6956 45.98045 -104.72844 13.25974 -1.61073 47.31216 -0.36897 -6.84687 -19.27183 -6.37613 -3.62248 -2.49161 51.1629 2.1538 1.20181 -25.11507 -6.78692 3.94395 2.71667
0.0016 -2e-05 -0.00027 -174.76669 -42.62835 -1.29381 47.62422 1.818 -7.46168 7.00253 2.08899 -0.1351 -20.6668 -10.46375 4.91322 35.00424 91.46847 5.26857 0.88782 -28.69108 15.06633 -13.99277 46.42152 -104.57849 13.16851 -1.5992 47.42554 -0.3463 -6.72398 -19.27855 -6.38385 -3.63725 -2.50652 51.28952 2.20173 1.39513 -25.12641 -6.77991 3.91745 2.6986
0.00208 2e-05 -0.00031 -174.66569 -42.70339 -1.28893 47.55774 1.84881 -7.26423 7.2561 2.13628 -0.13606 -20.34491 -10.61717 5.13328 34.95158 91.66504 5.32858 0.88306 -27.927 15.45521 -14.28871 46.8577 -104.43073 13.0785 -1.58786 47.53888 -0.32353 -6.60217 -19.28533 -6.39158 -3.65199 -2.52132 51.41595 2.25015 1.58831 -25.13799 -6.77291 3.8908 2.6805
0.00257 5e-05 -0.00034 -174.5622 -42.77864 -1.28378 47.49151 1.87987 -7.0635 7.50927 2.18399 -0.13699 -20.0285 -10.77962 5.37457 34.90006 91.77823 5.36711 0.8638 -27.17061 15.85173 -14.58665 47.30328 -104.27877 12.98616 -1.57615 47.65224 -0.30098 -6.47823 -19.29196 -6.39929 -3.66681 -2.53633 51.54268 2.29755 1.78167 -25.14908 -6.7659 3.86446 2.66245
0.00305 8e-05 -0.00038 -174.46112 -42.85361 -1.27886 47.42495 1.91069 -6.86585 7.76279 2.23127 -0.13798 -19.70705 -10.93406 5.59742 34.84745 91.96233 5.42392 0.85693 -26.40692 16.24122 -14.88303 47.74013 -104.13062 12.89593 -1.56477 47.76547 -0.27824 -6.35645 -19.29874 -6.40702 -3.68151 -2.55113 51.669 2.34586 1.97464 -25.1606 -6.75891 3.83789 2.64439
0.00354 0.00011 -0.00043 -174.3625 -42.92862 -1.27426 47.35836 1.94128 -6.67165 8.01696 2.27821 -0.13892 -19.37911 -11.07739 5.79312 34.79361 92.25808 5.50946 0.86929 -25.63454 16.6222 -15.17654 48.16674 -103.98734 12.80839 -1.55383 47.87905 -0.25522 -6.23647 -19.30568 -6.4148 -3.69624 -2.56576 51.79542 2.39545 2.16814 -25.17277 -6.75186 3.81078 2.62616
0.00403 0.00014 -0.00042 -174.24824 -43.00455 -1.26794 47.29305 1.9734 -6.45666 8.26807 2.32767 -0.13975 -19.0875 -11.28069 6.13114 34.74716 91.98663 5.44893 0.7833 -24.9128 17.05241 -15.48366 48.65357 -103.81665 12.70571 -1.54046 47.99216 -0.23367 -6.10358 -19.31165 -6.42237 -3.71131 -2.58163 51.9231 2.43821 2.36165 -25.18157 -6.7449 3.78602 2.60847
0.0045 0.00018 -0.00055 -174.16793 -43.0778 -1.2652 47.22436 2.00213 -6.28613 8.52518 2.37146 -0.14108 -18.71997 -11.36005 6.17789 34.68492 92.8631 5.6841 0.89685 -24.08405 17.37858 -15.76388 49.01248 -103.70339 12.63477 -1.53218 48.10526 -0.20909 -5.99958 -19.31967 -6.43029 -3.72534 -2.59471 52.04693 2.495 2.55313 -25.1972 -6.73792 3.75677 2.58991
0.00489 0.00027 -0.001 -174.1741 -43.14973 -1.27278 47.15172 2.02282 -6.23416 8.80265 2.40208 -0.14148 -18.13685 -11.07381 5.34004 34.58112 97.34308 6.84702 1.63191 -22.95973 17.41733 -15.95343 49.02432 -103.75259 12.65334 -1.53836 48.22632 -0.1754 -5.96173 -19.33342 -6.43991 -3.73917 -2.60151 52.16977 2.59382 2.75582 -25.23413 -6.72956 3.71128 2.5668
0.00525 0.00039 -0.0016 -174.21564 -43.21779 -1.28381 47.07475 2.03985 -6.22762 9.08522 2.42631 -0.14278 -17.4796 -10.66729 4.22329 34.46167 102.90529 8.28891 2.55573 -21.72871 17.35163 -16.11815 48.90707 -103.85852 12.70329 -1.54957 48.34581 -0.13879 -5.95512 -19.34922 -6.44973 -3.75146 -2.60525 52.28684 2.70609 2.95352 -25.27743 -6.72143 3.66202 2.54323
0.00561 0.0005 -0.00215 -174.24532 -43.28375 -1.29303 46.9962 2.05774 -6.20239 9.36323 2.45219 -0.14521 -16.86002 -10.33321 3.29275 34.34752 107.65883 9.5226 3.34221 -20.54721 17.33544 -16.30647 48.84623 -103.93537 12.73737 -1.55814 48.46092 -0.10406 -5.94302 -19.36398 -6.45895 -3.76269 -2.60946 52.40043 2.80988 3.14238 -25.31615 -6.71404 3.61703 2.52128
0.00601 0.00059 -0.00261 -174.25711 -43.36622 -1.30356 46.93239 2.07908 -6.16843 9.65163 2.48433 -0.14129 -16.2203 -9.9262 2.11986 34.23873 113.69636 11.0858 4.3381 -19.35938 17.31183 -16.44664 48.79433 -104.02639 12.77849 -1.56818 48.59787 -0.06706 -5.89499 -19.37913 -6.47033 -3.7813 -2.61753 52.54025 2.92365 3.37753 -25.362 -6.70307 3.56121 2.49337
0.00632 0.00072 -0.0033 -174.31474 -43.4131 -1.31183 46.83714 2.09231 -6.16412 9.91847 2.50067 -0.15063 -15.60893 -9.63961 1.37406 34.11787 117.38606 12.04736 4.95338 -18.16165 17.27713 -16.67631 48.69362 -104.10116 12.81214 -1.5764 48.6885 -0.03399 -5.92822 -19.39406 -6.47726 -3.78424 -2.61688 52.62347 3.01989 3.51583 -25.39449 -6.69964 3.52706 2.47776
0.00638 0.00095 -0.00455 -174.48868 -43.36489 -1.31574 46.65382 2.08471 -6.22428 10.13373 2.48522 -0.19784 -15.06107 -9.74245 1.98 33.94349 113.70464 11.11418 4.375 -16.945 17.25357 -17.20201 48.48692 -104.11791 12.81928 -1.57796 48.65526 -0.01376 -6.18694 -19.40703 -6.47174 -3.74362 -2.59254 52.55662 3.06386 3.38232 -25.38887 -6.71665 3.55354 2.49637
0.00634 0.00122 -0.00603 -174.70787 -43.28052 -1.31665 46.43957 2.06899 -6.31383 10.32509 2.45187 -0.25807 -14.5509 -9.9666 3.00864 33.76196 107.72674 9.59342 3.42312 -15.72584 17.21986 -17.81117 48.23627 -104.11576 12.81726 -1.57755 48.57462 0.00256 -6.52492 -19.41995 -6.46172 -3.68737 -2.55958 52.43199 3.08988 3.15314 -25.36967 -6.74128 3.60194 2.52733
0.00633 0.00147 -0.00743 -174.9073 -43.21134 -1.31724 46.24087 2.05654 -6.39407 10.52173 2.42038 -0.31136 -14.04451 -10.11594 3.77225 33.59946 103.22414 8.45395 2.70788 -14.51897 17.17965 -18.35338 48.00743 -104.12229 12.81857 -1.57834 48.51346 0.02163 -6.82067 -19.43331 -6.45388 -3.63881 -2.53087 52.33082 3.1244 2.97076 -25.35629 -6.76269 3.64043 2.55257
0.00639 0.00173 -0.00874 -175.10433 -43.14756 -1.32541 46.03521 2.04564 -6.45895 10.74335 2.41643 -0.36904 -13.44545 -10.3399 4.8233 33.36985 96.98754 6.85502 1.72463 -13.25959 17.18103 -19.0151 47.76571 -104.13215 12.82547 -1.57815 48.46151 0.03704 -7.14299 -19.44459 -6.44563 -3.58791 -2.50079 52.24178 3.1577 2.77191 -25.34405 -6.78321 3.67868 2.57833
0.00628 0.00196 -0.01029 -175.31695 -43.06363 -1.31659 45.83738 2.02977 -6.56205 10.90563 2.34933 -0.42064 -13.05158 -10.44414 5.39313 33.27843 93.73973 6.05336 1.19861 -12.11252 17.09684 -19.45071 47.54284 -104.1277 12.81693 -1.57929 48.37841 0.05864 -7.42931 -19.46067 -6.43698 -3.53793 -2.47141 52.11319 3.18943 2.58753 -25.32684 -6.80721 3.72251 2.60586
0.0058 0.0021 -0.01242 -175.55866 -42.93585 -1.2655 45.66307 2.00119 -6.7643 10.92315 2.12603 -0.45239 -13.1968 -10.14259 4.41514 33.57108 99.8453 7.73706 2.1101 -11.25943 16.76094 -19.21681 47.37711 -104.10656 12.77822 -1.58609 48.22686 0.10259 -7.58806 -19.4858 -6.42991 -3.49673 -2.4473 51.89596 3.21858 2.44175 -25.29548 -6.84063 3.77802 2.63609
0.00514 0.0022 -0.01478 -175.8148 -42.78835 -1.19683 45.49859 1.9683 -7.00346 10.87921 1.83721 -0.47755 -13.55122 -9.72525 2.96022 34.00283 108.93105 10.21529 3.47802 -10.5237 16.34288 -18.75608 47.23373 -104.06811 12.72226 -1.59402 48.04424 0.1523 -7.70897 -19.51658 -6.4223 -3.45661 -2.42402 51.64042 3.2473 2.31803 -25.26186 -6.87701 3.83813 2.66756
0.00451 0.0023 -0.01706 -176.06614 -42.6482 -1.13336 45.33357 1.9378 -7.22515 10.85479 1.56946 -0.50565 -13.82197 -9.39169 1.80223 34.37066 116.29504 12.23718 4.58129 -9.74504 15.97509 -18.41698 47.08435 -104.0252 12.66731 -1.60036 47.87222 0.19624 -7.8532 -19.54747 -6.41391 -3.41431 -2.39951 51.39734 3.27775 2.20106 -25.22972 -6.91094 3.89501 2.69791
0.00407 0.00246 -0.01929 -176.31195 -42.51428 -1.08082 45.15166 1.9044 -7.45145 10.86532 1.33806 -0.53444 -14.045 -8.93169 0.32464 34.74177 125.1346 14.64316 5.91348 -8.91993 15.55342 -18.00716 46.91529 -104.03321 12.64076 -1.61103 47.7144 0.2524 -7.97574 -19.56688 -6.40969 -3.37829 -2.37814 51.17035 3.30068 2.01184 -25.18869 -6.9497 3.95728 2.73093
0.00321 0.00249 -0.02165 -176.57176 -42.36231 -1.00231 45.00667 1.87714 -7.67576 10.78844 1.01535 -0.56005 -14.41768 -8.70478 -0.61147 35.13846 131.63338 16.44264 6.88182 -8.22248 15.22316 -17.68381 46.79377 -103.9319 12.55124 -1.61314 47.51902 0.28571 -8.13171 -19.61177 -6.39673 -3.33001 -2.35072 50.90502 3.33993 1.97721 -25.17396 -6.97913 4.00937 2.75865
0.00125 0.00224 -0.02435 -176.86874 -42.17286 -0.84852 44.96993 1.8591 -7.89126 10.48816 0.45902 -0.57859 -15.14316 -9.15919 0.10813 35.57614 130.99588 16.40094 6.73829 -7.82388 15.17808 -17.70519 46.79222 -103.52835 12.29107 -1.58999 47.23742 0.24445 -8.4039 -19.72304 -6.3596 -3.24477 -2.30495 50.51502 3.41953 2.38477 -25.16467 -6.98099 4.03016 2.77032
-0.00112 0.00185 -0.02716 -177.17831 -41.96468 -0.67072 44.96844 1.84907 -8.10191 10.10173 -0.18707 -0.59406 -16.01333 -9.8492 1.3776 36.03278 127.90571 15.72052 6.2146 -7.55463 15.22556 -17.81208 46.83865 -103.01685 11.9687 -1.55846 46.91711 0.18189 -8.70803 -19.85987 -6.31373 -3.14779 -2.25339 50.09448 3.51619 2.9435 -25.19595 -6.97356 4.04078 2.77674
-0.0033 0.0015 -0.02991 -177.48101 -41.76029 -0.5091 44.94544 1.84117 -8.31132 9.75279 -0.79397 -0.61082 -16.82345 -10.42546 2.36606 36.4794 125.90639 15.31541 5.86289 -7.24227 15.22239 -17.84568 46.86768 -102.55724 11.67504 -1.53165 46.6087 0.13573 -8.98737 -19.98719 -6.27198 -3.0581 -2.20547 49.7052 3.60873 3.42027 -25.25147 -6.97104 4.05737 2.78628
-0.00549 0.00127 -0.03274 -177.79064 -41.57515 -0.32456 44.94639 1.80876 -8.53801 9.40823 -1.39748 -0.62787 -17.61777 -11.02859 3.47463 36.94167 124.08929 14.99525 5.52707 -6.86688 15.25243 -18.01472 46.88054 -102.08292 11.37746 -1.50097 46.32466 0.06146 -9.30828 -20.10734 -6.22961 -2.96005 -2.15329 49.23635 3.68738 3.95485 -25.12136 -6.96558 4.06868 2.79287
-0.00776 0.00076 -0.03541 -178.0867 -41.34571 -0.18237 44.90514 1.82935 -8.72529 9.03548 -2.02718 -0.64361 -18.47543 -11.62987 4.46336 37.3679 121.29763 14.34318 5.06589 -6.65312 15.23653 -17.92748 46.9361 -101.61649 11.07531 -1.47643 45.97924 0.04052 -9.55133 -20.24651 -6.18646 -2.87676 -2.10864 48.93251 3.79717 4.40325 -25.3943 -6.96419 4.08825 2.8042
